<svg xmlns="http://www.w3.org/2000/svg" viewBox="0 0 512 512">
  <!-- Background -->
  <rect width="512" height="512" rx="100" fill="url(#bg)"/>
  <defs>
    <linearGradient id="bg" x1="0%" y1="0%" x2="100%" y2="100%">
      <stop offset="0%" style="stop-color:#0c1b4d"/>
      <stop offset="100%" style="stop-color:#1d4ed8"/>
    </linearGradient>
  </defs>

  <!-- Heart shape -->
  <path d="M256 370 C256 370 130 280 130 190 C130 150 158 125 195 125 C220 125 240 140 256 158 C272 140 292 125 317 125 C354 125 382 150 382 190 C382 280 256 370 256 370Z"
    fill="none" stroke="white" stroke-width="18" stroke-linejoin="round"/>

  <!-- EKG line inside heart area -->
  <polyline points="170,210 200,210 215,175 230,245 248,190 262,210 290,210 310,210 325,175 340,210"
    fill="none" stroke="#fbbf24" stroke-width="14" stroke-linecap="round" stroke-linejoin="round"/>
</svg>
